<svg xmlns="http://www.w3.org/2000/svg" width="82.646" height="77.731" viewBox="0 0 82.646 77.731">
  <g id="RBF-001-Logo-IconOnly-WHITE-RGB" transform="translate(0.04 0.048)">
    <path id="Path_81" data-name="Path 81" d="M952.94,28.132l.012.673c.1.117.187.238.269.361v.008l.058.074.021.028c.225.313.825.985,1.458,1.694.445.5.924,1.036,1.39,1.575a4.317,4.317,0,0,1,2.166-.691c.044-.065.09-.135.126-.187a3.561,3.561,0,0,1,2.588-1.883c.455-.035,1.168-.7,1.551-1.051a2.338,2.338,0,0,1,1.614-.856h.172l.155.032a1.846,1.846,0,0,1,.19.069,1.777,1.777,0,0,0-.144-.243,4.139,4.139,0,0,1-.5-.591,6.434,6.434,0,0,1-.269-.942c-.249-.73-1.022-1.122-1.544-1.691a5.734,5.734,0,0,1-.835-1.329l-1.726-3.4a3.143,3.143,0,0,0-1.131-1.423.162.162,0,0,0-.229.1,1.821,1.821,0,0,1-.37.592c-1.41,1.813-1.711,4.487-3.589,5.819a3.915,3.915,0,0,0-1.275,1.044,1.614,1.614,0,0,0-.19.673l.019,1Z" transform="translate(-905.126 -18.39)" fill="#fff"/>
    <path id="Path_82" data-name="Path 82" d="M942.42,121.249c.009-.02.019-.042.027-.062v-.027C942.435,121.19,942.432,121.221,942.42,121.249Z" transform="translate(-896.047 -107.377)" fill="#fff"/>
    <path id="Path_83" data-name="Path 83" d="M878.554,149.8a18.622,18.622,0,0,1,2.171,1.31,17.108,17.108,0,0,1,3.142,3.238,14.206,14.206,0,0,1,1.969,3.684,5.925,5.925,0,0,1,.285-1.017l.112-.284.214-.218a.9.9,0,0,0,.135-.167l.009-.051.008-.044c-.008-.036-.023-.087-.046-.156a3.589,3.589,0,0,0-.651-1.17,9.249,9.249,0,0,0-1.052-1A8.771,8.771,0,0,1,883,151.956c-.956-1.519-.954-4.708-.289-6.314l.011-.035V145.6l.047-.1,1.345-2.84a.158.158,0,0,1,0-.022l.007.013.04-.087.663,1.5c.5.959,1.156,2.054,1.558,2.094.725.073.78.783,1.192,1.386s.679,1.29,1.061,1.911a15.861,15.861,0,0,1,.865,1.371,7,7,0,0,1,.525,2.378c.021.214.038.43.058.646.058.135.117.253.167.394s.093.315.135.472a6.381,6.381,0,0,0,.69-1.367,4.042,4.042,0,0,1,1.037-2.05,4.778,4.778,0,0,1,1.9-.578,5.944,5.944,0,0,0,2.226-1.118,15.78,15.78,0,0,1-2.16-.942c-1.723-.554-6.817-4.953-7.576-6.624A4.657,4.657,0,0,1,886,140c-.023-.043-.054-.091-.073-.135s-.013-.043-.024-.066a16.189,16.189,0,0,0-3.028,1.8c-2.774,2.117-4.348,4.374-4.769,7.837C878.093,149.647,878.554,149.8,878.554,149.8Z" transform="translate(-840.385 -123.51)" fill="#fff"/>
    <path id="Path_84" data-name="Path 84" d="M1063.885,215.945c.453-.3.9-.609,1.373-.865a4.3,4.3,0,0,1,.672-.286c.059-.02.116-.038.175-.054a2.789,2.789,0,0,1,.732-.116h.009a2.085,2.085,0,0,1,.515.062c.279.069.538.2.817.269a3.127,3.127,0,0,0,.76.1c.027,0,.054.011.081.011.073,0,.145,0,.217-.007.011-.015.023-.027.032-.042a15.434,15.434,0,0,0,2.287-5.432,18.244,18.244,0,0,0,.39-2.95V206.2c-.042-1.345-.374-5.078-1.677-7.314-.043.063-.1.117-.145.178a3.353,3.353,0,0,1-.367.439c-.538.531-3.294,1.683-6.742,2.186a22.463,22.463,0,0,1-3.363.226q.052.646.1,1.289a6.936,6.936,0,0,0,.324,1.859c.322.872,1,1.659.942,2.585a6.684,6.684,0,0,0-.135,1.17,4.888,4.888,0,0,0,.285.882,2.346,2.346,0,0,1,.086.818,1.743,1.743,0,0,1,.181.323,6.539,6.539,0,0,1,.281.915c.055.213.117.456.19.712a5.215,5.215,0,0,0,.625,1.567h0A2.182,2.182,0,0,1,1063.885,215.945Z" transform="translate(-997.507 -174.651)" fill="#fff"/>
    <path id="Path_85" data-name="Path 85" d="M908.88,63.537a4.642,4.642,0,0,0,2.763,1.933c.1.023.2.044.3.065a5.414,5.414,0,0,1,1.375.433l.091-.225a4.531,4.531,0,0,0-.868-1.165c-.336-.3-.736-.517-1.1-.782-.49-.358-.913-.807-1.421-1.137s-.912-.135-1.473.036c.028.078.052.135.085.223C908.724,63.151,908.808,63.393,908.88,63.537Z" transform="translate(-866.733 -56.591)" fill="#fff"/>
    <path id="Path_86" data-name="Path 86" d="M1071.364,80.876a2.182,2.182,0,0,0,1.055,1.426,3.72,3.72,0,0,1,1.84,2.748,17.17,17.17,0,0,1,3.522-1.975,15.976,15.976,0,0,1,5.085-.79l.293-.015a13.452,13.452,0,0,0-1.076-2.534,6.137,6.137,0,0,1-.5-2.658,6.779,6.779,0,0,0-.047-2.556.116.116,0,0,0-.159-.061c-2.115,1.076-3.3.884-6.344,3.228a2.474,2.474,0,0,1-1.211.448c-.237.03-.478.013-.713.048a2.51,2.51,0,0,0-1.5.97,10.378,10.378,0,0,0-.623.87,4.07,4.07,0,0,1,.335.743Z" transform="translate(-1007.322 -66.951)" fill="#fff"/>
    <path id="Path_87" data-name="Path 87" d="M896.448,64a5.968,5.968,0,0,0,1.695,3.808,24.848,24.848,0,0,0,3.027,1.281,4.2,4.2,0,0,1,1.232.985,1.727,1.727,0,0,1,.352.574,1.255,1.255,0,0,1,.042.557,1.867,1.867,0,0,1-.054.2,2.364,2.364,0,0,1-.082.307.039.039,0,0,0,0,.008,3.958,3.958,0,0,0,.081.57c.019.109.016.21.046.323a6.2,6.2,0,0,0,.375,1.038c.76,1.671,5.854,6.071,7.576,6.624a19.283,19.283,0,0,0,3.878,1.5A10.619,10.619,0,0,1,916.55,80.3a2.193,2.193,0,0,0,.682-.49.2.2,0,0,1,.155-.077h0a.18.18,0,0,1,.143.067,3.772,3.772,0,0,1,.608,2.1c.012.153.026.308.038.463q.488.024.973.024h.087q.432,0,.858-.022c.1,0,.208-.015.312-.02.2-.013.4-.026.609-.043.124-.012.245-.027.367-.04.18-.019.361-.038.538-.061.125-.016.249-.036.372-.054.17-.026.339-.05.5-.078.125-.02.246-.043.369-.066.16-.03.32-.059.478-.091.121-.024.241-.051.36-.077.151-.032.3-.066.445-.1.117-.027.233-.056.347-.085l.422-.109.324-.09.394-.114.305-.094c.122-.039.243-.077.36-.116l.278-.094.332-.117.246-.1c.1-.039.2-.078.3-.117.073-.028.147-.056.214-.085.1-.039.184-.077.269-.114l.175-.075c.082-.036.153-.071.226-.1l.147-.069c.071-.035.135-.067.19-.1l.1-.052c.082-.046.152-.089.2-.125a2.95,2.95,0,0,1,1-.5l-.027.07a4.771,4.771,0,0,1,1.528-2.107,7.331,7.331,0,0,1,1.749-.764,3.82,3.82,0,0,0,1.632-.959,1.56,1.56,0,0,0,.28-1.766c-.309.616-1.843.69-3.6.776a15.127,15.127,0,0,0-4.574.673,14.462,14.462,0,0,0-6.439,5.129c.942-1.809,1.585-4.95-.231-5.982a3.711,3.711,0,0,1-1.759-2.328c-.169-.472-.319-.807-.753-.821-.673-.012-1.387-.794-1.928-1.48a7.217,7.217,0,0,0-.825-1.029h-.015a.3.3,0,0,0-.082.039.3.3,0,0,0-.074.035,1.682,1.682,0,0,0-.134.113c-.036.031-.066.052-.108.09l-.293.269c-.057.052-.12.108-.182.163l-.207.186c-.073.065-.153.121-.231.183s-.134.11-.2.163-.182.121-.269.179c-.069.044-.135.093-.2.135A3.211,3.211,0,0,1,913,70.6c-.061.026-.118.061-.18.082a2.153,2.153,0,0,1-.538.116,1.14,1.14,0,0,0-.425.118,1.4,1.4,0,0,0-.143.1,1.725,1.725,0,0,0-.218.153c-.052.047-.1.106-.148.159s-.112.114-.163.178-.1.135-.151.207-.086.117-.126.176c-.083.122-.164.245-.243.358-.031.044-.062.079-.093.121-.051.07-.1.135-.155.2a1.187,1.187,0,0,1-.109.1,1.034,1.034,0,0,1-.147.125.569.569,0,0,1-.124.038.446.446,0,0,1-.135.044h-.233c-.028,0-.048.012-.075.012a2.959,2.959,0,0,0-.807.125c-.034.009-.063.023-.1.035a2.749,2.749,0,0,0-.632.315l-.056.044a2.962,2.962,0,0,0-.471.421l-.023.028a2.961,2.961,0,0,0-.318.44c-1.359-1.716-3.383-3.811-3.96-4.61-.022-.031-.047-.059-.069-.09h0c-.114-.157-.231-.313-.36-.459a2.247,2.247,0,0,0-.477-.418,4.881,4.881,0,0,0-1.5-.463,6.154,6.154,0,0,1-3.7-2.612c-.174-.269-.553-1.5-.673-1.629h0v0Z" transform="translate(-856.257 -57.906)" fill="#fff"/>
    <path id="Path_88" data-name="Path 88" d="M708.865,216.379a17.1,17.1,0,0,0-3.142-3.238,18.961,18.961,0,0,0-2.17-1.309,14,14,0,0,0-4.864-1.692c.026.071.061.135.082.213a3.259,3.259,0,0,1,.135.538c.19,1.231-1.749,8.461-6.646,12.409a18.828,18.828,0,0,1-3.476,2.312c-1.395,1.044-7.689,2.585-9.416,2.249a4.653,4.653,0,0,1-1.776-.673c-.089-.011-.176-.02-.254-.035a.264.264,0,0,1-.063-.019,15.6,15.6,0,0,0-.269,3.327,12.768,12.768,0,0,0,3.941,8.984,15.728,15.728,0,0,0,4.643,2.79,17.135,17.135,0,0,0,4.131,1.2,14.116,14.116,0,0,0,3.789-.04h0a32.779,32.779,0,0,1-1.328-4.95C690.538,227.6,698.368,219.226,708.865,216.379Z" transform="translate(-666.329 -184.388)" fill="#fff"/>
    <path id="Path_89" data-name="Path 89" d="M605.322,301.648h.135a4.439,4.439,0,0,0,2.887-1.076c.074-.065.145-.134.218-.2a4.732,4.732,0,0,1,1.373-.966,4.928,4.928,0,0,0-1.749,0c-.422.1-.815.289-1.227.426-.554.184-1.139.269-1.684.48-.512.2-.608.612-.775,1.121l.219.059C604.939,301.552,605.171,301.62,605.322,301.648Z" transform="translate(-603.582 -261.578)" fill="#fff"/>
    <path id="Path_90" data-name="Path 90" d="M616.505,221.866c.617,2.129,2.556,3.857,2.545,6.073a3.8,3.8,0,0,0,.108,1.583c.257.568.881.85,1.41,1.181a4.808,4.808,0,0,1,.651.5c.253-.022.491-.027.694-.03.369,0,1.228-.1,2.137-.2.624-.07,1.3-.145,1.961-.208a4.074,4.074,0,0,1,.659-2.042c-.023-.062-.046-.124-.066-.176a3.471,3.471,0,0,1-.026-3.125,3.806,3.806,0,0,0,.034-1.769,2.114,2.114,0,0,1,.457-2.03c.036-.032.074-.048.11-.077-.063,0-.122-.02-.186-.016a4.049,4.049,0,0,1-.74.062,5.484,5.484,0,0,1-.888-.32c-.712-.211-1.45.176-2.189.269a5.574,5.574,0,0,1-1.508-.086l-3.632-.538a3.016,3.016,0,0,0-1.749.093.155.155,0,0,0-.046.237A1.768,1.768,0,0,1,616.505,221.866Z" transform="translate(-613.715 -193.647)" fill="#fff"/>
    <path id="Path_91" data-name="Path 91" d="M732.612,143.846a4.229,4.229,0,0,1,.807.148l.108.031a3.2,3.2,0,0,0,.87.165,1.856,1.856,0,0,0,.8-.2,3.454,3.454,0,0,1,1.462-.323,4.023,4.023,0,0,1,1.679.386,16.581,16.581,0,0,1,.418-3.8,15.382,15.382,0,0,1,2.226-4.448l.145-.229a13.092,13.092,0,0,0-2.54-.538,5.9,5.9,0,0,1-2.363-1.094,6.57,6.57,0,0,0-2.035-1.391.109.109,0,0,0-.135.091c-.335,2.26-1.15,3.083-1,6.78a2.382,2.382,0,0,1-.322,1.194c-.108.2-.256.382-.359.586a2.4,2.4,0,0,0-.075,1.718A9.334,9.334,0,0,0,732.612,143.846Z" transform="translate(-714.079 -117.24)" fill="#fff"/>
    <path id="Path_92" data-name="Path 92" d="M609.2,163.782h.144c.173,0,.359-.008.562-.023h.083c.517-.043,1.112-.126,1.749-.241.656-.118,1.345-.269,2.031-.437.468-.116.932-.242,1.376-.373l.027-.008c.211-.063.416-.126.615-.19l.074-.026c.18-.058.356-.117.523-.178l.143-.052c.135-.051.279-.1.4-.153l.179-.075c.1-.044.211-.087.305-.135l.221-.112c.073-.038.135-.062.182-.091a3.092,3.092,0,0,0,.311-.2,18.848,18.848,0,0,0,3.476-2.314c4.9-3.948,6.62-11.165,6.645-12.408a2.843,2.843,0,0,1,.169-1.064l-.016-.036a4.446,4.446,0,0,1-.744-2.277,6.75,6.75,0,0,1,.375-1.8,3.7,3.7,0,0,0,.159-1.815,1.512,1.512,0,0,0-1.229-1.211c.309.586-.488,1.831-1.4,3.257a14.35,14.35,0,0,0-2.018,3.959,13.851,13.851,0,0,0,.43,7.914c-.1-.2-.227-.414-.362-.626-.042-.067-.091-.135-.134-.2-.1-.144-.2-.288-.309-.43-.059-.078-.122-.153-.186-.23-.108-.135-.218-.256-.332-.378-.07-.074-.135-.147-.215-.219-.12-.117-.243-.226-.37-.332-.074-.062-.147-.126-.223-.183a4.673,4.673,0,0,0-.444-.292c-.062-.036-.121-.081-.183-.113a3.147,3.147,0,0,0-.648-.256c-.04-.011-.083-.009-.125-.017a2.188,2.188,0,0,0-.455-.063c-.03,0-.061.008-.09.009s-.077.008-.116.012a1.982,1.982,0,0,0-.628.163,3.5,3.5,0,0,1-.821.269c-.089.017-.168.017-.253.027a3.319,3.319,0,0,1-.352.039c-.036,0-.065-.009-.1-.011a3.606,3.606,0,0,1-.5-.058c-.067-.012-.135-.016-.2-.031-.208-.047-.4-.1-.573-.152a2.422,2.422,0,0,0-.538-.1c-.013,0-.031-.008-.043-.008h-.013a.646.646,0,0,0-.17.035.539.539,0,0,0-.089.022.589.589,0,0,0-.214.184c-.383.519-1.4.646-2.24.685a7.4,7.4,0,0,0-1.267.073c-.214.2.513,2.246-.221,3.466-.617,1.029.759,2.451.278,3.047a2.713,2.713,0,0,0-.383,2.9c-2.105.109-4.879.529-5.826.538a3.309,3.309,0,0,0-1.27.172,4.735,4.735,0,0,0-1.2.921,5.663,5.663,0,0,1-.882.631c-.1.062-.219.1-.328.157a5.862,5.862,0,0,1-.654.3c-.135.048-.276.075-.413.114a6.1,6.1,0,0,1-.636.159c-.151.026-.3.028-.453.042s-.332.046-.5.046h-.246a1.015,1.015,0,0,1-.149-.022l-.081-.017-.134-.028-.086-.023-.164-.042-.192-.052-.055-.015-.258-.07-.093-.024-.135-.035-.085-.019-.1-.022-.055-.007-.054-.008h-.023a4.258,4.258,0,0,0,1.345.611l.026.007c.176.051.357.1.538.135.039.009.077.012.116.02.152.03.305.058.456.078.085.011.164.012.247.02s.2.022.3.024h.057a1.922,1.922,0,0,0,.269-.012h.164a1.914,1.914,0,0,0,.4-.086,23.387,23.387,0,0,0,2.69-1.66,4.072,4.072,0,0,1,1.46-.417,2.376,2.376,0,0,1,.239-.012h.028a1.345,1.345,0,0,1,.381.051.9.9,0,0,1,.085.051,1.545,1.545,0,0,1,.672.607,4.6,4.6,0,0,0,1.816.7A3.17,3.17,0,0,0,609.2,163.782Z" transform="translate(-597.42 -122.445)" fill="#fff"/>
    <path id="Path_93" data-name="Path 93" d="M935.61,199.5c-.19-.308-.355-.63-.519-.952a8.3,8.3,0,0,0-.5-.9,5.646,5.646,0,0,1-.4-.733l-.034-.074a1.736,1.736,0,0,1-.3-.118c0,.091-.007.178-.009.26v.312a5.6,5.6,0,0,0,.177.608c.046.147.074.3.135.44a5.9,5.9,0,0,0,.305.595c.069.126.121.261.2.382a6.09,6.09,0,0,0,.453.582,3.409,3.409,0,0,0,.223.285,5.687,5.687,0,0,0,.829.726c.1.074.207.145.312.217l.1.067a2.706,2.706,0,0,0-.167-.456,5.645,5.645,0,0,0-.426-.685C935.848,199.869,935.723,199.686,935.61,199.5Z" transform="translate(-888.621 -172.773)" fill="#fff"/>
    <path id="Path_94" data-name="Path 94" d="M985.121,206.655a2.666,2.666,0,0,0-.382-.959,8.758,8.758,0,0,1-.476-1.021,7.912,7.912,0,0,1-.4-2.257l-.1-1.287-.106-1.307-.122-1.509-.02-.249-.018-.214v-.011a12.129,12.129,0,0,0-1.036.864c-.218.2-.433.4-.65.605a23.777,23.777,0,0,1-1.961,1.715,7.327,7.327,0,0,1-2.786,1.379c-.188.043-.381.078-.574.113a2.517,2.517,0,0,0-.749.2,2.941,2.941,0,0,0-.4.929c-.046.141-.09.282-.135.42a8.378,8.378,0,0,1-1.069,2.05l-.464.673.069.2q.171.5.363,1.034c.039.109.079.227.118.338.262.743.538,1.521.794,2.3a4.925,4.925,0,0,1,1.036-.128c.046,0,.082-.016.128-.016h0a4.928,4.928,0,0,1,1.8.344c.116-.071.253-.163.358-.233a5.934,5.934,0,0,1,1.821-.915,3.169,3.169,0,0,1,.768-.1,2.859,2.859,0,0,1,.885.135,1.264,1.264,0,0,0,.383.05,2.893,2.893,0,0,0,.5-.05,7.093,7.093,0,0,0,1.045-.293c.167-.059.326-.118.471-.174.231-.086.43-.156.62-.214.059-.017.121-.03.179-.044s.159-.047.235-.059a3.385,3.385,0,0,1-.238-.881,3.618,3.618,0,0,1,.085-1.16A2.046,2.046,0,0,0,985.121,206.655Z" transform="translate(-923.084 -173.743)" fill="#fff"/>
    <path id="Path_95" data-name="Path 95" d="M1103.717,324.525l.035-.066c-.223,0-.441-.016-.659-.026-.4-.016-.791-.034-1.211-.034a15.414,15.414,0,0,0-4.373.673,2.942,2.942,0,0,1-.721.1h-.079c-.1,0-.2.008-.3.008a4.7,4.7,0,0,1-1.231-.157c-.173-.047-.344-.108-.514-.171a2.369,2.369,0,0,0-.269-.093.7.7,0,0,0-.157-.017,2.027,2.027,0,0,0-.889.28c-.269.149-.56.34-.859.538s-.634.426-.966.615c-.077.043-.156.085-.235.126a2.331,2.331,0,0,0,.021.237.2.2,0,0,0,.011.079,2.393,2.393,0,0,0,.157.487c.016.039.035.077.054.116a3.022,3.022,0,0,0,.338.538c.079.1.144.208.212.313.035.055.079.109.112.165a3.822,3.822,0,0,1,.456,1.291c.013.079.034.157.042.237s.008.165.012.249.015.186.013.28a5.021,5.021,0,0,1-.091.856c-.012.071-.02.144-.036.215s-.046.171-.069.256-.046.186-.075.279a20.067,20.067,0,0,1,5.274-.72h.04c.063,0,.134.015.195.018a9.154,9.154,0,0,1,1.1.1c.19.03.382.071.576.11.269.055.538.113.819.183.2.051.393.1.591.161q.439.126.873.269c.174.057.346.109.518.168l.159.051a6.084,6.084,0,0,0,.013-1.9c-.032-.4-.064-.8-.073-1.188a8.878,8.878,0,0,1,.792-3.831C1103.441,325.056,1103.578,324.791,1103.717,324.525Z" transform="translate(-1024.891 -283.278)" fill="#fff"/>
    <path id="Path_96" data-name="Path 96" d="M853.2,310.691a5.4,5.4,0,0,1-.739.389c-.768.319-3.8.369-7.4-.386a22.961,22.961,0,0,1-13.375-7.753c-1.664-1.4-5.326-8.617-5.408-10.822a5.359,5.359,0,0,1,.488-2.768c-.126,0-.252.027-.379.034a19.261,19.261,0,0,0-3.943.6,15.955,15.955,0,0,0-9.807,7.341,19.666,19.666,0,0,0-2.076,6.438,21.34,21.34,0,0,0-.282,5.363,15.507,15.507,0,0,0,.429,2.421,21.376,21.376,0,0,0,3.683,7.58,28.477,28.477,0,0,0,8.071,7.381l-.051-.008a19.208,19.208,0,0,0,3.384,1.7c.191.079.421.163.631.245.4.156.829.313,1.3.476.373.135.748.26,1.164.391.7.223,1.454.445,2.287.665h.008a17.847,17.847,0,0,0,10.515-.291,14.934,14.934,0,0,0,3.157-1.589,17.346,17.346,0,0,0,2.739-2.248,21.01,21.01,0,0,0,4.057-5.857c.021-.046.048-.11.081-.19s.07-.176.112-.287a28.571,28.571,0,0,0,1.246-4.547c.016-.086.032-.174.047-.261a13.821,13.821,0,0,0,.179-4.081s0-.02-.016-.012A.988.988,0,0,0,853.2,310.691Z" transform="translate(-781.626 -252.943)" fill="#fff"/>
    <path id="Path_97" data-name="Path 97" d="M958.967,215.978h0c-.039.011-.085.013-.126.022h0a1.729,1.729,0,0,1-.269.031h-.039c-.015,0-.055-.008-.079-.009h0a3.951,3.951,0,0,1-.71-.087h-.03c-.269-.059-.578-.143-.9-.239h0l-.16-.048h0c-.312-.1-.64-.206-.981-.324h0l-.293-.1-.028-.011-.706-.248-.108-.039-.057-.02h-.016l-.087-.03h-.012c-.351-.124-.708-.245-1.065-.36l-.176-.059c-.366-.117-.732-.225-1.094-.321-.071-.02-.144-.039-.215-.057-.362-.093-.72-.172-1.067-.23l-.153-.022a7.125,7.125,0,0,0-1-.087h-.074a17.29,17.29,0,0,0-9.5,2.768c1.875-1.582,4.019-4.783,2.47-6.759a4.417,4.417,0,0,1-.9-3.355c.03-.621.028-1.076-.461-1.293-.741-.319-1.181-1.516-1.469-2.529a9.329,9.329,0,0,0-.447-1.521.151.151,0,0,0-.085-.019.808.808,0,0,0-.085.015.741.741,0,0,0-.081.015,2.675,2.675,0,0,0-.269.079l-.067.022-.521.192c-.128.047-.261.094-.4.143l-.192.063c-.135.044-.278.086-.422.125l-.184.05a5.631,5.631,0,0,1-.6.117h-.093a4,4,0,0,1-.437.031c-.023,0-.044-.009-.067-.011a2.7,2.7,0,0,1-.773-.112,1.364,1.364,0,0,0-.428-.067c-.02,0-.04.007-.062.008a1.574,1.574,0,0,0-.157.022,2.015,2.015,0,0,0-.328.073c-.057.019-.113.039-.17.062-.106.044-.213.094-.316.149-.048.027-.1.05-.147.078-.016.011-.034.017-.051.028-.112.066-.222.135-.33.208l-.44.291c-.038.024-.075.044-.112.069-.1.061-.192.116-.285.163a1.342,1.342,0,0,1-.134.062,1.284,1.284,0,0,1-.241.078.751.751,0,0,1-.12.023.44.44,0,0,1-.06.012.563.563,0,0,1-.248-.055,3.8,3.8,0,0,0-.726-.257c-.067-.018-.135-.03-.2-.042a3.389,3.389,0,0,0-.507-.058c-.035,0-.075-.012-.11-.012h-.06a3.209,3.209,0,0,0-.581.059l-.055.015a3.4,3.4,0,0,0-.468.135c-.05.019-.1.039-.145.059-.113.048-.218.1-.316.153-.04.022-.081.042-.118.065a3.449,3.449,0,0,0-.335.225c-.73-2.529-2.027-5.784-2.3-6.933-.011-.044-.026-.089-.036-.135h0a6.839,6.839,0,0,0-.192-.673,2.679,2.679,0,0,0-.339-.683,5.791,5.791,0,0,0-1.461-1.2,7.4,7.4,0,0,1-2.923-4.592c-.071-.375.07-1.922,0-2.117v-.009a.062.062,0,0,1,0,.007v.011a7.15,7.15,0,0,0,.149,5.008c.7,1.118,1.936,1.79,2.782,2.8a5.1,5.1,0,0,1,.923,1.657,2.094,2.094,0,0,1,.135.8c0,.042-.032.078-.04.12,0-.008.015-.016.02-.024a1.925,1.925,0,0,1-.57,1.036,5.776,5.776,0,0,0-.327,2.39c.082,2.2,3.742,9.416,5.406,10.82a23.516,23.516,0,0,0,3.8,3.571,17.666,17.666,0,0,0,1.749,1.181c.125.075.25.152.377.225.585.335,1.184.643,1.79.915.1.047.208.087.313.135.561.242,1.127.46,1.692.655.1.034.2.073.3.1.617.2,1.232.378,1.839.538.135.034.269.065.4.1.609.145,1.211.276,1.793.378h0c.589.1,1.153.18,1.7.245l.338.04c.514.055,1,.1,1.458.124l.231.012c.4.02.784.031,1.125.032h.424c.155,0,.3-.007.436-.012l.2-.009c.124-.008.238-.016.342-.026l.135-.012c.134-.016.253-.032.339-.051a5,5,0,0,1,1.013-.12h0a1.8,1.8,0,0,1,.324.023h.011a5.611,5.611,0,0,1,2.591-1.579,4.859,4.859,0,0,1,1.025-.1h.079c.4,0,.794.031,1.189.048.161.007.324.012.487.012h.024a5.491,5.491,0,0,0,.788-.058c.059-.009.117-.022.176-.032a3.08,3.08,0,0,0,.776-.243,1.874,1.874,0,0,0,1.115-1.794v-.042A.781.781,0,0,1,958.967,215.978Z" transform="translate(-876.681 -164.326)" fill="#fff"/>
  </g>
</svg>
