<?xml version="1.0" encoding="utf-8"?>
<!-- Generator: Adobe Illustrator 25.3.1, SVG Export Plug-In . SVG Version: 6.00 Build 0)  -->
<svg version="1.1" id="Layer_1" xmlns="http://www.w3.org/2000/svg" xmlns:xlink="http://www.w3.org/1999/xlink" x="0px" y="0px"
	 viewBox="0 0 1800 1151.5" style="enable-background:new 0 0 1800 1151.5;" xml:space="preserve">
<style type="text/css">
	.st0{fill:#4D859F;}
	.st1{fill:#165A7D;}
	.st2{fill:#D0AF2B;}
	.st3{fill:#1B3D6E;}
	.st4{fill:#172852;}
</style>
<g>
	<g>
		<g>
			<path class="st0" d="M1055.2,359c-5.3,0.7-10.3,1.2-15.2,1.7C1044.9,360.2,1049.9,359.7,1055.2,359z"/>
			<path class="st0" d="M1147.5,274.4c-1.6,7.3-3.8,14.6-6.7,21.4C1143.7,288.9,1145.9,281.7,1147.5,274.4z"/>
			<path class="st0" d="M1063.5,357.6c19.2-3.9,37.7-12.3,52.2-25.4c11.1-10,19.4-22.6,25.2-36.4c-5.7,13.8-14.1,26.4-25.2,36.4
				C1101.2,345.3,1082.7,353.7,1063.5,357.6z"/>
			<path class="st0" d="M1038.5,360.8c-4.8,0.4-9.5,0.6-14,0.7C1029.1,361.4,1033.7,361.1,1038.5,360.8z"/>
			<path class="st0" d="M1023.3,361.5c-4.7,0-9.2-0.1-13.7-0.3C1014.1,361.4,1018.7,361.5,1023.3,361.5z"/>
			<path class="st0" d="M988.9,340.3c22.2-3,43.9-11.8,60.5-26.8c22.2-20,33.3-50.3,34.8-80.1c0.1-2.1-0.1-9.5-1.3-18.7
				c-9.9,1.5-20.6,2.2-31.5,1.7c-9.1-0.4-18.3-1.8-27.2-4.3c-13.5-3.8-23.4-7.7-30.6-11.7c-6.5-2.1-19.4-11.4-31.4-21.9
				c-1.5-1.3-3-2.6-4.4-3.9c-4.4-4-8.5-8-11.9-11.7c-4.6-5-8.1-9.4-9.5-12.6c-0.8-1.7-1.5-3.4-2-4.9c-1.1-3.1-1.7-5.9-1.8-8.6
				c-0.1-1.2,0-2.5,0.1-3.7c-8.4,3.8-16.3,8.4-23.6,14c-21,16-36.4,39.9-39.5,66.1c-1.7,14.1,0.1,28.5,3.3,42.4
				c2.5,11,5.9,21.9,11.1,31.9c9.9,19.2,29,37.6,47.8,48.4c26.8,15.4,50.4,23.5,77.7,25.2c-23.2-1.5-43.6-7.6-65.6-18.7
				C957.6,343.2,972.3,342.6,988.9,340.3z"/>
			<path class="st1" d="M1136.8,194.9c-0.9,1.3-1.9,2.5-2.8,3.4c-3.1,3-15.3,8.6-32.1,12.8c-4.8,1.2-10,2.3-15.4,3.2
				c-1.1,0.2-2.3,0.3-3.4,0.5c1.1,9.2,1.4,16.5,1.3,18.7c-1.5,29.8-12.6,60.1-34.8,80.1c-16.6,15-38.3,23.8-60.5,26.8
				c-16.7,2.3-31.3,2.9-45.2,2c22,11.2,42.5,17.2,65.6,18.7c0.1,0,0.2,0,0.3,0c4.4,0.3,9,0.4,13.7,0.3c0.4,0,0.8,0,1.2,0
				c4.5-0.1,9.2-0.3,14-0.7c0.5,0,0.9-0.1,1.4-0.1c4.9-0.4,10-0.9,15.2-1.7c0,0,0,0,0,0c2.8-0.4,5.5-0.8,8.3-1.4
				c19.2-3.9,37.7-12.3,52.2-25.4c11.1-10,19.4-22.6,25.2-36.4c2.9-6.9,5.1-14.1,6.7-21.4c1.6-7.3,2.6-14.8,2.9-22.3
				c0.3-5-1.4-39.1-12.7-58.5C1137.5,194,1137.1,194.4,1136.8,194.9z"/>
			<path class="st1" d="M891.6,56.4C891.6,56.4,891.6,56.4,891.6,56.4C891.6,56.4,891.6,56.4,891.6,56.4L891.6,56.4z"/>
			<path class="st1" d="M924.7,88.4c3.9,0.9,8,1.4,11.4,3.5c1.3,0.8,2.4,1.8,3.4,2.9c0,0,0.1,0.1,0.1,0.1c1.2,1.3,2.3,2.8,3.4,4.3
				c4.4,6,19.7,21.9,29.9,34.8c2.6-4.5,9-11.4,20.3-10.7c6,0.4,8.8-14.9,18.2-15.6c11.1-0.9,21-14.8,23.2-14.4
				c0.7,0.2,3.1,3.8,6.3,7.9c0.1-0.8,0.2-1.6,0.2-2.4c0.3-6.3,0.2-13.1-3.8-17.9c-1.2-1.5-2.8-2.7-3.8-4.5c-1.2-2.2-1.2-4.8-2-7.1
				c-1.9-5.5-7.7-8.5-11.7-12.8c-2.7-2.9-4.5-6.5-6.3-10c-4.3-8.6-8.7-17.1-13-25.7c-2.1-4.1-4.6-8.6-8.5-10.8
				c-0.7-0.4-1.5,0-1.7,0.8c-0.5,1.6-1.7,3.1-2.8,4.5c-10.8,13.6-13.1,33.9-27.3,43.9c-3.4,2.4-7.5,4.3-9.6,7.9
				c-2.5,4.2-1.4,9.5-1.1,14.4c0.2,4.1-0.1,8.2-1,12.1c-1.8-3.5-3.6-7-5.4-10.5c-2.4-4.5-4.9-9.2-8.7-12.6c-2.5-2.3-5.6-3.9-8.3-5.9
				c-3.7-2.7-6.9-6.1-10.7-8.6c-3.8-2.5-7-0.9-11.4,0.4c-4.3,1.3-11.8-0.2-12-0.2c0.9,1,3.8,10.3,5.1,12.3
				C903.1,78.5,913.3,85.7,924.7,88.4z"/>
			<path class="st1" d="M1074.3,136.2c13.7,7.8,8.9,31.5,1.7,45.2c11.7-17.5,29.3-30.7,48.7-38.8c9.2-3.9,22.6-4.5,34.6-5.1
				c0.7-1.3,1.3-2.6,1.6-4c2.3-9.2-4.3-17.9-8.1-26.5c-2.7-6.3-4-13.2-3.8-20.1c0.2-6.5,1.8-13.3-0.4-19.4c-0.2-0.5-0.7-0.7-1.2-0.5
				c-16,8.1-25,6.7-47.9,24.4c-2.6,2-5.9,3-9.1,3.4c-1.8,0.2-3.6,0.1-5.4,0.4c-4.6,0.7-8.4,3.8-11.3,7.3c-2.9,3.6-5.2,7.6-8,11.3
				c-1.4,1.8-3,3.4-4.7,4.9C1062.9,123.9,1065.1,131,1074.3,136.2z"/>
			<path class="st2" d="M1186.4,131.7c-2.3,4.6-13.9,5.2-27.1,5.9c-12,0.6-25.4,1.3-34.6,5.1c-19.4,8.1-36.9,21.3-48.7,38.8
				c7.1-13.7,12-37.4-1.7-45.2c-9.2-5.2-11.4-12.3-13.2-17.4c-1.3-3.7-2.4-6.4-5.8-6.4c-5-0.1-10.4-5.9-14.5-11.1
				c-3.2-4.1-5.6-7.8-6.3-7.9c-2.2-0.5-12,13.5-23.2,14.4c-9.4,0.7-12.2,16-18.2,15.6c-11.3-0.7-17.6,6.2-20.3,10.7
				c-10.3-13-25.6-28.8-29.9-34.8c-1.1-1.5-2.1-2.9-3.4-4.3c0,0-0.1-0.1-0.1-0.1c-1-1.1-2.1-2.1-3.4-2.9c-3.4-2.1-7.5-2.6-11.4-3.5
				c-11.4-2.7-21.6-9.9-28-19.7c-1.3-2-4.2-11.3-5.1-12.3c0,0,0,0,0,0c0,0,0,0,0,0c0,0,0,0.1,0,0.1c-0.4,8,6.4,24.2,12.8,28.8
				c6.8,4.8,15.5,5.8,22.9,9.7c3.5,1.9,6.7,4.4,9.3,7.4c1.1,1.3,2.1,2.7,2.7,4.3c0.1,0.3,0,0.5,0.1,0.8c0-0.1,0-0.1,0.1-0.2
				c0.6,2.4,0.1,5-0.8,7.4c0.1,4.4,1.2,9,3.8,14.7c5.7,12.6,44.2,45.9,57.3,50.1c7.3,4,17.1,7.9,30.6,11.7
				c47.6,13.4,101.5-8.4,109.6-13.9c4.8-3.3,7.6-3.8,7.6-3.8s-0.1,0.2-0.2,0.5c2.8-6.2,6-12.1,11.5-15.9c4-2.7,8.7-4.1,13.2-5.8
				c4.5-1.6,9.1-3.6,12.3-7.3C1187.5,141.4,1188.9,135.8,1186.4,131.7z"/>
			<path class="st2" d="M1136.8,194.9c0.3-0.4,0.7-0.8,1-1.3c1.6-2.4,3-5,4.2-7.7C1140.4,189,1138.7,192.2,1136.8,194.9z"/>
			<path class="st3" d="M1139.8,177.2c-8.1,5.5-62.1,27.3-109.6,13.9c-13.5-3.8-23.4-7.7-30.6-11.7c-13-4.2-51.5-37.4-57.3-50.1
				c-2.6-5.7-3.7-10.3-3.8-14.7c0,0,0-0.1,0-0.1c-0.1,0.2-0.1,0.5-0.2,0.7c-0.8,1.8-1.5,3.4-2.1,5c-2,4.8-3.2,8.9-3.6,12.9
				c-0.1,1.2-0.1,2.4-0.1,3.7c0.2,2.7,0.7,5.5,1.8,8.6c0.5,1.6,1.2,3.2,2,4.9c1.4,3.2,4.9,7.6,9.5,12.6c3.5,3.7,7.6,7.7,11.9,11.7
				c1.5,1.3,2.9,2.6,4.4,3.9c12,10.4,24.9,19.8,31.4,21.9c7.3,4,17.1,7.9,30.6,11.7c8.9,2.5,18.1,3.8,27.2,4.3
				c10.9,0.5,21.5-0.2,31.5-1.7c1.1-0.2,2.3-0.3,3.4-0.5c5.4-0.9,10.6-2,15.4-3.2c16.8-4.2,29.1-9.8,32.1-12.8
				c1-0.9,1.9-2.1,2.8-3.4c1.9-2.6,3.7-5.8,5.3-9c2.7-5.3,4.6-10.4,5.2-11.9c0.1-0.3,0.2-0.5,0.2-0.5S1144.7,173.9,1139.8,177.2z"/>
		</g>
		<g>
			<path class="st4" d="M929,299.7c-3.3-28.6-20.9-54.2-43.5-72c-3.8-3-31.5-20.7-53-22.7c0.5,1.2,0.8,2.5,1.1,3.8
				c0.2,0.6,0.3,1.3,0.4,1.9c0.1,0.6,0.1,1.3,0.1,2.3c-0.3,7.3-4.7,24.9-14,44c-2.3,4.8-5,9.6-7.9,14.4c-3,4.8-6.2,9.6-9.8,14.2
				c-5.4,6.9-11.6,13.3-18.5,18.9c-7.9,6.4-14.7,11.1-20.6,14.5c-2,1.1-3.9,2.1-5.6,3c-0.7,0.5-1.5,1-2.4,1.5c-1.9,1-4.2,2.1-7,3.2
				c-17.8,7-51.2,14.3-61.9,12.3c-7.1-1.4-11.8-3.5-15.6-6.7c-1.7,8.7-2.5,17.5-2.2,26.4c0.9,25.4,11,50.8,29.8,67.9
				c10.1,9.2,22.4,15.8,35.1,21.1c10,4.2,20.5,7.5,31.2,9c20.6,2.9,45.7-1.8,64.6-10.5c40.9-18.8,64.5-41.1,87-84
				C926.3,343,931.5,321.1,929,299.7z"/>
			<path class="st3" d="M587.6,321.6C587.6,321.6,587.7,321.6,587.6,321.6C587.7,321.6,587.6,321.6,587.6,321.6
				C587.6,321.6,587.6,321.6,587.6,321.6z"/>
			<path class="st3" d="M631.2,313.6c2.9-2.5,5.5-5.5,9.1-7c0.7-0.3,1.4-0.5,2.2-0.7c0.5-0.1,1-0.2,1.5-0.3c0.2,0,0.5-0.1,0.7-0.1
				c1.7-0.2,3.5-0.2,5.2-0.2c7.2,0,28.1-3.2,44-4c-2.1-4.6-3.9-13.4,2.9-21.9c3.6-4.5-6.8-15.2-2.1-23c5.5-9.2,0.1-24.7,1.7-26.2
				c0.5-0.5,4.7-0.3,9.7-0.5c-0.6-0.5-1.2-1-1.7-1.5c-4.8-3.7-10.1-7.4-16.1-7c-1.9,0.1-3.7,0.7-5.6,0.5c-2.4-0.3-4.4-1.7-6.7-2.4
				c-5.4-1.6-11,1.3-16.5,2c-3.8,0.5-7.6-0.1-11.4-0.7c-9.1-1.4-18.3-2.7-27.4-4.1c-4.4-0.7-9.3-1.2-13.2,0.7
				c-0.7,0.3-0.8,1.2-0.3,1.8c1,1.3,1.5,3.1,2,4.7c4.7,16.1,19.3,29.1,19.2,45.9c0,4-0.9,8.3,0.8,12c1.9,4.3,6.7,6.4,10.7,8.9
				c3.3,2.1,6.3,4.7,9,7.6c-3.8-0.6-7.5-1.1-11.3-1.6c-4.9-0.6-9.9-1.3-14.7-0.2c-3.2,0.7-6.2,2.2-9.3,3.2c-4.2,1.4-8.6,2-12.7,3.6
				c-4.1,1.6-4.7,5-6.1,9.2c-1.4,4.1-6.7,9.2-6.9,9.3c1.3-0.2,10.2,2.8,12.5,2.9C611.4,325,622.7,321,631.2,313.6z"/>
			<path class="st3" d="M752.2,222.8c13.8-6.4,29.7,10.6,36.4,23.9c-7.2-18.9-7.7-40.1-3.3-59.8c2.1-9.4,9.1-20.3,15.3-30
				c-0.6-1.2-1.3-2.4-2.2-3.5c-5.9-6.9-16.4-6.6-25.3-8.4c-6.5-1.4-12.6-4.2-17.9-8.3c-5-3.8-9.4-8.9-15.4-10.5
				c-0.5-0.1-1,0.2-1,0.7c-2.5,17.1-8.7,23.3-7.6,51.2c0.1,3.1-0.9,6.3-2.4,9c-0.8,1.5-1.9,2.9-2.7,4.4c-2,3.9-1.7,8.7-0.6,13
				c1.2,4.3,3.1,8.3,4.4,12.6c0.6,2.1,1,4.3,1.3,6.4C736.2,224.9,743,227.1,752.2,222.8z"/>
			<path class="st2" d="M673.2,322.5c13.1,2.5,60.7-9.1,71.2-17c7.2-3.5,15.7-9,26.3-17.5c37.1-29.8,50-84.4,50.2-93.8
				c0.1-5.6,1.3-8,1.3-8s0,0.1,0.1,0.1c-3.3-5.6-5.9-11.2-5.8-17.6c0.1-4.6,1.6-9.1,2.8-13.6c1.3-4.5,2.2-9.2,1.2-13.7
				c-1-4.5-4.7-8.7-9.3-9.1c2.3,4.4-3.6,13.8-10.5,24.5c-6.2,9.7-13.2,20.6-15.3,30c-4.5,19.8-3.9,40.9,3.3,59.8
				c-6.7-13.2-22.7-30.3-36.4-23.9c-9.2,4.3-16,2.1-21,0.7c-3.6-1-6.3-1.7-8.3,0.9c-2.9,3.9-10.5,4.9-16.8,5.2
				c-5,0.2-9.2,0.1-9.7,0.5c-1.6,1.5,3.9,17-1.7,26.2c-4.7,7.8,5.7,18.5,2.1,23c-6.8,8.5-5,17.3-2.9,21.9c-15.9,0.8-36.9,4-44,4
				c-1.7,0-3.5,0-5.2,0.2c-0.2,0-0.5,0.1-0.7,0.1c-0.5,0.1-1,0.1-1.5,0.3c-0.7,0.2-1.5,0.4-2.2,0.7c-3.5,1.5-6.2,4.4-9.1,7
				c-8.5,7.4-19.8,11.4-31.1,10.9c-2.3-0.1-11.2-3.1-12.5-2.9c0,0,0,0-0.1,0c0,0,0,0,0,0c0,0,0,0,0.1,0c6,4.7,22.5,8.5,29.7,6
				c7.6-2.6,13.2-8.9,20.4-12.5c3.4-1.7,7.2-2.8,11-3.2c1.6-0.1,3.3-0.2,4.9,0.3c0.2,0.1,0.4,0.3,0.7,0.4c0,0-0.1-0.1-0.1-0.1
				c2.2,0.9,4,2.7,5.3,4.8C663,319.7,667.2,321.4,673.2,322.5z"/>
			<path class="st2" d="M833.7,208.8c-0.3-1.3-0.6-2.5-1.1-3.8c-1.1-3-2.6-5.9-4.3-8.8C830.5,200.3,832.7,204.9,833.7,208.8z"/>
			<path class="st2" d="M755.2,323.4c0.9-0.5,1.7-1,2.4-1.5c1.8-0.9,3.7-1.9,5.6-3c-2,1.1-3.9,2.1-5.6,3
				C756.9,322.4,756.1,322.9,755.2,323.4z"/>
			<path class="st0" d="M748.2,326.6c2.7-1.1,5.1-2.2,7-3.2c0.9-0.5,1.7-1,2.4-1.5c1.8-0.9,3.7-1.9,5.6-3
				c5.9-3.4,12.7-8.1,20.6-14.5c6.9-5.6,13.1-12.1,18.5-18.9c3.6-4.6,6.9-9.4,9.8-14.2c3-4.8,5.6-9.7,7.9-14.4
				c9.3-19.1,13.7-36.6,14-44c0-0.9,0-1.7-0.1-2.3c-0.1-0.6-0.2-1.2-0.4-1.9c-1-3.9-3.2-8.5-5.4-12.6c-2.8-5.1-5.6-9.3-6-9.9
				c0-0.1-0.1-0.1-0.1-0.1s-1.2,2.4-1.3,8c-0.2,9.4-13.2,63.9-50.2,93.8c-10.6,8.5-19.1,14-26.3,17.5c-10.5,7.9-58.1,19.5-71.2,17
				c-5.9-1.2-10.2-2.8-13.6-5.2c0,0-0.1,0-0.1-0.1c0.1,0.2,0.3,0.3,0.4,0.5c2.8,4.8,5.2,8.5,7.9,11.5c0.9,1,1.8,1.9,2.8,2.7
				c0.1,0.1,0.2,0.1,0.2,0.2c3.8,3.2,8.5,5.3,15.6,6.7C697,341,730.4,333.7,748.2,326.6z"/>
		</g>
		<g>
			<path class="st1" d="M962.2,592.6c-17.2-4.6-30.7-9.3-40.9-13.6C933.6,584.2,947,588.6,962.2,592.6z"/>
			<path class="st1" d="M1130.3,455.6c0,0,0,0.1,0,0.1C1130.3,455.7,1130.3,455.7,1130.3,455.6z"/>
			<path class="st1" d="M991.3,558.1c33.5-13.1,70-50.3,75.1-90.9c0.3-2.4,0.7-10.3,0.8-20.5c-23.7-5-50.6-14.5-72.4-31.6
				c-10-7.8-17.6-14.7-23.5-21c-1.9-2.1-3.7-4.1-5.3-6c-0.8-0.7-1.6-1.5-2.5-2.5c-13.4-14.8-37.8-63.7-38.3-79.3c0,0,0,0,0,0l0,0
				c0,0,0,0,0-0.1c-0.2-4.3,0.1-7.9,0.6-11.2c0.6-3.6,1.6-6.8,3.1-9.7c-11,0.4-22,1.9-32.7,4.8c-30.6,8.2-58.7,27.8-74.1,55.5
				c-8.4,14.9-12.9,31.8-15.7,48.7c-2.2,13.4-3.3,27-2.1,40.5c2.3,25.9,15.1,55.1,31.1,75.6c19.2,24.7,38.2,42.6,61.4,56.3
				c-0.5-0.3-0.8-0.5-0.8-0.5S949.4,574.5,991.3,558.1z"/>
			<path class="st3" d="M1128.2,447.2c-0.1,0-0.2,0.1-0.2,0.1c-0.7,0.4-1.5,0.9-2.2,1.2c-0.8,0.4-1.7,0.8-2.5,1.2c0,0,0,0-0.1,0
				c0,0,0,0,0,0c-5.8,2.4-28.7,2.8-55.9-2.9c-0.1,10.2-0.5,18-0.8,20.5c-5.1,40.5-41.7,77.8-75.1,90.9c-41.9,16.4-95.2,8.2-95.2,8.2
				s0.3,0.2,0.8,0.5c2.3,1.5,10.1,6.3,24.4,12.1c10.2,4.2,23.7,9,40.9,13.6c0.1,0,0.1,0,0.2,0.1c25.9,6.9,54,6.9,79.2-2.1
				c0.1,0,0.2-0.1,0.3-0.1c25.4-9.1,46.4-27.5,61.8-49.8c3.8-5.6,7.3-11.4,10.5-17.4c1-2,2-4,3-6c0.2-0.3,0.4-0.8,0.6-1.4
				c0.5-1.2,1.1-2.9,1.9-5c4-11.5,10.8-34.9,10.8-55c0,0,0-0.1,0-0.1c0-3.2-0.3-6.3-0.7-9.3C1129.2,446.6,1128.7,446.9,1128.2,447.2
				z"/>
			<path class="st4" d="M918.4,181.5C918.4,181.5,918.4,181.5,918.4,181.5C918.4,181.5,918.4,181.5,918.4,181.5
				C918.4,181.5,918.4,181.5,918.4,181.5z"/>
			<path class="st4" d="M918.5,197.5c2.6,13.8,10.7,26.5,22.1,34.7c3.9,2.8,8.3,5.2,11,9.1c0.6,0.8,1,1.6,1.5,2.5
				c0.3,0.6,0.5,1.2,0.7,1.8c0.1,0.3,0.2,0.5,0.3,0.8c0.7,2,1.3,4.2,1.8,6.3c2.1,8.7,11.9,33.3,17.4,52.4c5-3.8,15.2-8.6,27.4-2.7
				c6.5,3.1,16.6-12.6,27.4-9.1c12.8,4.1,30.1-7,32.3-5.4c0.7,0.5,1.7,5.7,3.4,11.7c0.5-0.9,0.9-1.7,1.3-2.5
				c3.2-6.9,6.2-14.4,3.9-21.6c-0.7-2.2-1.9-4.3-2.2-6.7c-0.3-3,0.9-5.9,1-8.8c0.4-7-4.7-13-7.2-19.5c-1.7-4.5-2.1-9.3-2.4-14.1
				c-0.9-11.5-1.9-23-2.8-34.5c-0.5-5.6-1.1-11.7-4.6-15.9c-0.6-0.7-1.7-0.6-2.3,0.1c-1.3,1.6-3.3,2.7-5.1,3.7
				c-18.2,10.2-30,31.7-50.4,36.4c-4.9,1.1-10.3,1.3-14.3,4.4c-4.7,3.6-5.9,9.9-7.8,15.5c-1.6,4.6-3.9,9-6.7,13
				c-0.4-4.7-0.8-9.5-1.3-14.1c-0.6-6.1-1.3-12.4-4-18c-1.8-3.7-4.4-6.9-6.5-10.4c-2.9-4.7-4.9-9.9-8-14.5
				c-3.1-4.6-7.4-4.2-12.9-4.8c-5.4-0.5-13-5.6-13.3-5.7C919,183,917.9,194.7,918.5,197.5z"/>
			<path class="st4" d="M1085.2,353.5c11.7,14.9-4.5,39.1-18.7,51.1c21-14.1,46.5-20.8,71.8-20.9c25.3-0.2,64.7,23.7,73.6,15.9v0
				c0,0-2.3,0.4-8.3-0.9c-5.9-1.4-20.9-8.6-20.9-8.6c6.7-9.2,3.3-21.8,3.1-33.2c-0.2-8.3,1.6-16.6,5-24.1c3.2-7.1,8.1-14,8.4-21.7
				c0-0.6-0.5-1.1-1.1-1.1c-21.5,1.8-30.8-4-64.5,5.3c-3.8,1-7.9,0.6-11.7-0.4c-2.1-0.6-4.1-1.5-6.2-2.1c-5.4-1.3-11.1,0.4-15.9,3
				c-4.9,2.6-9.2,6.1-14,8.9c-2.4,1.4-4.9,2.4-7.5,3.4C1078.1,334.7,1077.4,343.6,1085.2,353.5z"/>
			<path class="st2" d="M1212,399.6c-9,7.8-48.4-16.1-73.6-15.9c-25.3,0.2-50.8,6.8-71.8,20.9c14.2-12,30.4-36.1,18.7-51.1
				c-7.8-10-7.1-18.9-6.8-25.4c0.2-4.7,0.2-8.2-3.5-9.8c-5.5-2.4-8.9-11.3-11.1-18.9c-1.7-6-2.7-11.2-3.4-11.7
				c-2.3-1.5-19.5,9.5-32.3,5.4c-10.8-3.5-20.9,12.2-27.4,9.1c-12.3-5.9-22.4-1.2-27.4,2.7c-5.5-19.1-15.3-43.7-17.4-52.4
				c-0.5-2.1-1-4.2-1.8-6.3c-0.1-0.3-0.2-0.5-0.3-0.8c-0.2-0.6-0.5-1.2-0.7-1.8c-0.4-0.9-0.9-1.7-1.5-2.5c-2.8-3.9-7.2-6.3-11-9.1
				c-11.4-8.2-19.5-20.9-22.1-34.7c-0.5-2.8,0.5-14.5,0-16c0,0,0-0.1,0-0.1c0,0,0,0,0,0c0,0,0,0.1,0,0.1c-4,8.7-3.9,29.8,1.1,37.9
				c5.3,8.4,14.6,13.5,21,21.2c3.1,3.7,5.5,8,7,12.5c0.6,2,1.1,4,1,6c0,0.3-0.2,0.6-0.3,0.9c0-0.1,0.1-0.1,0.1-0.2
				c-0.4,3-2.2,5.6-4.3,7.8c-1.9,4.9-2.8,10.5-2.5,18.1c0.6,16.7,28.3,71.2,40.9,81.8c6.3,7.7,15.4,16.6,28.7,27
				c46.8,36.6,116.8,36.9,128.3,34.5c6.9-1.5,10.1-0.7,10.1-0.7s0,0.1-0.1,0.1c5.8-5.5,12-10.3,19.7-12c5.7-1.3,11.5-0.7,17.3-0.4
				c5.8,0.3,11.8,0.1,17-2.4C1208.7,411,1212.9,405.4,1212,399.6z"/>
			<path class="st2" d="M929.2,285.2c-0.1,0.1-0.1,0.2-0.1,0.3c-1.5,2.9-2.5,6.1-3.1,9.7C926.6,291.5,927.6,288.2,929.2,285.2z"/>
			<path class="st2" d="M925.3,306.5C925.3,306.5,925.3,306.4,925.3,306.5C925.3,306.4,925.3,306.5,925.3,306.5L925.3,306.5z"/>
			<path class="st2" d="M1128.2,447.2c0.5-0.3,1-0.5,1.4-0.8c0.2-0.1,0.4-0.3,0.6-0.4C1129.6,446.4,1128.9,446.8,1128.2,447.2z"/>
			<path class="st2" d="M1123.3,449.7C1123.3,449.7,1123.2,449.7,1123.3,449.7C1123.2,449.7,1123.2,449.7,1123.3,449.7
				C1123.2,449.7,1123.2,449.7,1123.3,449.7C1123.2,449.7,1123.3,449.7,1123.3,449.7z"/>
			<path class="st2" d="M1125.8,448.6c0.8-0.4,1.5-0.8,2.2-1.2C1127.3,447.8,1126.5,448.2,1125.8,448.6z"/>
			<path class="st4" d="M1139.4,429c-11.5,2.4-81.5,2.1-128.3-34.5c-13.3-10.4-22.4-19.3-28.7-27c-12.6-10.6-40.2-65.1-40.9-81.8
				c-0.3-7.6,0.6-13.2,2.5-18.1c0,0,0-0.1,0-0.1c-0.2,0.2-0.3,0.5-0.5,0.7c-6.7,6.4-11.4,11.3-14.4,17c-1.6,3-2.6,6.3-3.2,10
				c-0.5,3.3-0.7,6.9-0.6,11.2c0,0,0,0,0,0.1c0,0,0,0,0,0c0.6,15.6,24.9,64.5,38.3,79.3c0.9,1,1.7,1.8,2.5,2.5
				c1.6,1.9,3.3,3.9,5.3,6c5.8,6.2,13.5,13.2,23.5,21c21.8,17,48.7,26.6,72.4,31.6c27.2,5.7,50.1,5.3,55.9,2.9c0,0,0,0,0,0
				c0,0,0,0,0.1,0c0.8-0.3,1.7-0.7,2.5-1.2c0.8-0.4,1.5-0.8,2.2-1.2c0.1,0,0.2-0.1,0.2-0.1c0.7-0.4,1.3-0.8,2-1.3
				c10.1-6.6,18.7-16.8,19.2-17.5c0,0,0.1-0.1,0.1-0.1S1146.3,427.6,1139.4,429z"/>
		</g>
	</g>
	<g>
		<g>
			<path class="st3" d="M18.3,727.3h58.2c41.8,0,62.7,15,62.7,45c0,12.7-3.8,23.3-11.3,32c-7.5,8.7-18.5,14.6-33,17.8
				c9.6,18.9,19.9,33.6,30.9,44.1c11,10.5,21.6,15.8,31.9,15.8c-0.8,6.4-3.5,11.7-8,15.9c-4.5,4.2-10.1,6.3-16.8,6.3
				c-11.3,0-23.1-8.5-35.4-25.4c-12.3-16.9-21.9-35-28.8-54.3H58.5v57.9l21.3,1.5c1,11-2.8,16.4-11.4,16.4h-60v-2
				c0-9.3,3.7-14.3,11.1-14.9l7.3-0.5V744.7l-18.5-1.5c-0.2-4.2,0.6-7.9,2.3-11.1C12.4,728.9,14.9,727.3,18.3,727.3z M58.5,743.2
				v65.5c1.3,0.2,3.2,0.3,5.6,0.3c28.2,0,42.2-11.6,42.2-34.9c0-10.3-2.7-18.2-8.2-23.7c-5.5-5.5-13.5-8.1-23.9-7.7L59,743.2H58.5z"
				/>
			<path class="st3" d="M185.3,814.9c0-28.4,7.3-50.8,21.8-67c14.5-16.3,34.1-24.4,58.7-24.4c24.6,0,43.5,7.8,56.5,23.4
				c13.1,15.6,19.6,37.6,19.6,66s-7.3,50.8-21.9,67c-14.6,16.3-34.2,24.4-58.8,24.4c-24.6,0-43.4-7.8-56.4-23.4
				C191.8,865.4,185.3,843.3,185.3,814.9z M263.5,743.7c-30.2,0-45.3,23-45.3,69.1c0,23.1,3.7,40.7,11.3,52.9
				c7.5,12.1,18.5,18.3,33,18.5c15.3-0.2,26.9-6.1,34.8-17.8c7.8-11.7,11.8-29,11.8-52c0-22.9-3.8-40.4-11.5-52.5
				C289.8,749.7,278.5,743.7,263.5,743.7z"/>
			<path class="st3" d="M482,727.3h48.1v2c0,9.3-3.7,14.3-11.1,14.9l-6.3,0.5l-46.8,83v54.9h0.3l18,1.5c1,11-2.8,16.4-11.4,16.4
				h-56.9v-2c0-9.3,3.7-14.3,11.1-14.9l7.3-0.5v-54.4l-48.1-83.5l-16.2-1.5c-0.5-1-0.4-3.3,0.3-6.8c1.5-6.4,5.2-9.6,11.1-9.6h61.2
				c-0.3,6.6-1.1,10.6-2.3,12.1c-2.2,2.9-5.1,4.5-8.9,4.8l-8.1,0.5h-0.5l34.2,61.5l33.4-61l-19.7-1.5c-0.5-1-0.4-3.3,0.3-6.8
				C472.4,730.5,476.1,727.3,482,727.3z"/>
			<path class="st3" d="M701.1,900.6h-59.2v-2c0-9.3,3.7-14.3,11.1-14.9l7.3-0.5h0.3l-10.1-36.7H605l-10.6,36.2l20.5,1.5
				c0.5,1,0.4,3.3-0.3,6.8c-1.5,6.4-5.2,9.6-11.1,9.6h-50.8v-2c0-9.3,3.7-14.3,11.1-14.9l9.4-0.5l48.6-155.8
				c7.3-0.7,15.8-0.7,25.6,0l47.6,155.3l17.7,1.5c0.5,1,0.4,3.3-0.3,6.8C710.7,897.4,707,900.6,701.1,900.6z M609.8,829.5H646
				l-17.5-64L609.8,829.5z"/>
			<path class="st3" d="M870.4,855.8v44.8h-125v-2c0-9.3,3.7-14.3,11.1-14.9l7.3-0.5V745.2l-17.7-1.5c-0.5-1-0.4-3.3,0.3-6.8
				c1.5-6.4,5.2-9.6,11.1-9.6h62v2.3c0,6.6-1.9,11-5.8,13.4c-1.5,0.8-3.3,1.3-5.3,1.3l-12.4,0.5h-0.5v137.9l54.6-1.8l4-34.9
				C865,844.9,870.4,848.2,870.4,855.8z"/>
			<path class="st3" d="M1002.7,727.3h57.4c20.6,0,35.5,4,44.9,11.9c9.4,7.9,14,17.5,14,28.6c0,20.6-10.5,34.5-31.6,41.7
				c11.8,1.7,21.3,5.7,28.5,12c7.2,6.3,10.8,15.1,10.8,26.2c0,16.5-5.6,29.5-16.7,38.8c-11.1,9.4-27.3,14-48.6,14h-68.3
				c0.2-10.5,3.5-16,10.1-16.7l8.1-1V745l-18.5-1.5c-0.5-4.4,0.3-8.2,2.4-11.4C997.3,728.9,999.8,727.3,1002.7,727.3z M1042.9,743.5
				v60.5h5.3c13.5,0,23.2-2.7,29.1-8.1c5.9-5.4,8.9-13.4,8.9-24s-3-18.3-9.1-22.9c-6.1-4.6-14-6.6-23.8-5.9l-9.6,0.5H1042.9z
				 M1094.3,851.2c0-21.8-14.3-32.5-43-32.1h-8.3v63.2l12.1,0.3C1081.2,882.8,1094.3,872.3,1094.3,851.2z"/>
			<path class="st3" d="M1286.3,855.8v44.8h-125v-2c0-9.3,3.7-14.3,11.1-14.9l7.3-0.5V745.2l-17.7-1.5c-0.5-1-0.4-3.3,0.3-6.8
				c1.5-6.4,5.2-9.6,11.1-9.6h62v2.3c0,6.6-1.9,11-5.8,13.4c-1.5,0.8-3.3,1.3-5.3,1.3l-12.4,0.5h-0.5v137.9l54.6-1.8l4-34.9
				C1280.9,844.9,1286.3,848.2,1286.3,855.8z"/>
			<path class="st3" d="M1432.8,727.3h45.5v2c0,9.3-3.7,14.3-11.1,14.9l-7.3,0.5v82.5c0,26.7-5.4,46.2-16.1,58.6
				c-10.7,12.4-26.5,18.6-47.4,18.6c-20.9,0-36.8-5.9-47.6-17.6c-10.8-11.7-16.2-31.7-16.2-59.8v-81.7l-18.2-1.5
				c-0.5-1-0.4-3.3,0.3-6.8c1.5-6.4,5.2-9.6,11.1-9.6h56.9v2c0,9.3-3.7,14.3-11.1,14.9l-7.3,0.5V831c0,18.6,2.6,32,7.8,40.5
				c5.2,8.4,14.4,12.7,27.6,12.7c26.6,0,40-16.7,40-50.1l-0.3-88.8l-18-1.5C1420.4,732.7,1424.2,727.3,1432.8,727.3z"/>
			<path class="st3" d="M1637.2,859.3v41.2h-127.3c0-10.8,3.7-16.4,11.1-16.9l7.3-0.5V745.2l-18.2-1.5c-0.5-1-0.4-3.3,0.3-6.8
				c1.5-6.4,5.2-9.6,11.1-9.6h110.8v38.2c0,7.6-5.4,10.9-16.2,9.9l-2.3-29.9l-53.9-0.8v62.7l45.3-5.3c1.9,8.1,1.9,16.4,0.2,25
				l-45.5-2.5v57.9l58.9-2l2-31.1C1631.8,848.4,1637.2,851.7,1637.2,859.3z"/>
			<path class="st3" d="M1776.1,736.1c4.9,4.9,7.3,11,7.3,18.2c0,7.3-2.2,12.7-6.6,16.4c-4.4,3.7-10,5.1-16.9,4
				c0-21.4-9.4-32.1-28.1-32.1c-8.3,0-15,1.9-20.1,5.7c-5.1,3.8-7.7,9-7.7,15.6c0,5.1,1.2,8.8,3.5,11.3c2.4,2.4,4.1,4.2,5.3,5.3
				c1.2,1.1,3.4,2.5,6.7,4.3c3.3,1.8,5.6,3,7.1,3.7c1.4,0.7,4.4,2,8.9,3.9c4.5,1.9,7.5,3.2,9,3.9c17.2,7.6,29.3,14.8,36.3,21.8
				c7,6.9,10.5,16.5,10.5,28.8c0,17-6,30.9-18,41.5c-12,10.6-28.2,15.9-48.6,15.9c-20.6,0-36-4.6-46.3-13.9
				c-5.6-5.2-8.3-11.3-8.3-18.3c0-7,2.2-12.5,6.7-16.6c4.5-4,11.2-6.1,20.1-6.1c0,12.3,2.6,21.3,7.7,27.1c5.1,5.7,13.3,8.6,24.4,8.6
				c11.1,0,19.9-2.6,26.3-7.7c6.4-5.1,9.6-11.6,9.6-19.4c0-7.8-3-14-9.1-18.7c-6.1-4.7-14.2-9.3-24.3-13.7
				c-10.1-4.4-16.8-7.3-20-8.7c-3.2-1.4-7.4-3.8-12.6-7.1c-5.2-3.3-9-6.5-11.4-9.5c-6.6-8.1-9.9-17.4-9.9-27.8
				c0-16,5.9-28.2,17.7-36.6c11.8-8.3,26.1-12.5,42.8-12.5C1754.8,723.5,1767.5,727.7,1776.1,736.1z"/>
		</g>
		<g>
			<path class="st0" d="M693.9,1017.7v26.9c0,5.3-3.8,7.7-11.4,7l-1.6-20.3l-36.2-1.2v43.1l31.9-3.7c1.3,5.7,1.4,11.6,0.2,17.6
				l-32.1-1.8v41.9l16.4,1.1c0.7,7.7-2,11.6-8,11.6h-43.7v-1.4c0-6.5,2.6-10,7.8-10.5l5.2-0.4v-97.2l-12.8-1.1
				c-0.4-0.7-0.3-2.3,0.2-4.8c1.1-4.5,3.7-6.8,7.8-6.8H693.9z"/>
			<path class="st0" d="M839.2,1139.8h-41.7v-1.4c0-6.5,2.6-10,7.8-10.5l5.2-0.4h0.2l-7.1-25.9h-32.1l-7.5,25.5l14.4,1.1
				c0.4,0.7,0.3,2.3-0.2,4.8c-1.1,4.5-3.7,6.8-7.8,6.8h-35.8v-1.4c0-6.5,2.6-10,7.8-10.5l6.6-0.4l34.2-109.8c5.1-0.5,11.1-0.5,18,0
				l33.5,109.5l12.5,1.1c0.4,0.7,0.3,2.3-0.2,4.8C846,1137.6,843.4,1139.8,839.2,1139.8z M774.9,1089.7h25.5l-12.3-45.1
				L774.9,1089.7z"/>
			<path class="st0" d="M899.7,1017.7h41c29.5,0,44.2,10.6,44.2,31.7c0,8.9-2.6,16.4-7.9,22.6c-5.3,6.1-13,10.3-23.3,12.6
				c6.8,13.3,14,23.7,21.8,31.1c7.7,7.4,15.2,11.1,22.5,11.1c-0.6,4.5-2.5,8.3-5.6,11.2c-3.1,3-7.1,4.5-11.9,4.5
				c-8,0-16.3-6-25-17.9c-8.7-11.9-15.5-24.7-20.3-38.2H928v40.8l15,1.1c0.7,7.7-2,11.6-8,11.6h-42.3v-1.4c0-6.5,2.6-10,7.8-10.5
				l5.2-0.4V1030l-13-1.1c-0.1-3,0.4-5.6,1.6-7.8C895.5,1018.8,897.3,1017.7,899.7,1017.7z M928,1028.9v46.2c1,0.1,2.3,0.2,3.9,0.2
				c19.8,0,29.8-8.2,29.8-24.6c0-7.2-1.9-12.8-5.8-16.7c-3.9-3.9-9.5-5.7-16.8-5.4l-10.7,0.4H928z"/>
			<path class="st0" d="M1182.1,1139.8h-40.5v-1.4c0-6.5,2.6-10,7.8-10.5l5-0.4l-6.4-86.5l-31.9,79.5c-4.3,1.3-8.1,1.6-11.4,0.9
				l-34.4-77l-5.2,82.7l14.4,1.1c0.4,0.7,0.3,2.3-0.2,4.8c-1.1,4.5-3.7,6.8-7.8,6.8h-36.4v-1.4c0-6.5,2.6-10,7.8-10.5l7.1-0.4
				l6.4-97.2l-12.3-1.1c-0.4-0.7-0.3-2.3,0.2-4.8c1.1-4.5,3.7-6.8,7.8-6.8h30.5l31.4,71l27.5-71h32.6c2,0,3.7,0.5,5,1.5
				c1.3,1,2.1,2.2,2.5,3.7c0.7,3.6,0.9,5.7,0.5,6.4l-12.5,1.1l7.3,96.8l13,1.1c0.4,0.7,0.3,2.3-0.2,4.8
				C1188.8,1137.6,1186.2,1139.8,1182.1,1139.8z"/>
		</g>
	</g>
</g>
</svg>
