<?xml version="1.0" standalone="no"?>
<!DOCTYPE svg PUBLIC "-//W3C//DTD SVG 20010904//EN"
 "http://www.w3.org/TR/2001/REC-SVG-20010904/DTD/svg10.dtd">
<svg version="1.0" xmlns="http://www.w3.org/2000/svg"
 width="700.000000pt" height="700.000000pt" viewBox="0 0 700.000000 700.000000"
 preserveAspectRatio="xMidYMid meet">
<metadata>
Created by potrace 1.14, written by Peter Selinger 2001-2017
</metadata>
<g transform="translate(0.000000,700.000000) scale(0.100000,-0.100000)"
fill="#000000" stroke="none">
<path d="M4467 6693 c-25 -38 -76 -131 -112 -208 -79 -167 -125 -231 -204
-284 -97 -66 -101 -74 -101 -215 0 -66 -4 -127 -9 -135 -6 -10 -22 13 -57 80
-53 102 -100 156 -207 234 -147 107 -132 100 -196 87 -31 -7 -81 -12 -110 -12
-61 0 -61 0 -10 -107 56 -117 185 -209 345 -248 86 -20 117 -41 180 -120 27
-33 98 -116 159 -185 60 -69 122 -140 136 -159 l27 -34 33 38 c40 45 99 74
151 75 55 0 79 15 126 81 43 61 92 99 127 99 37 1 100 37 175 99 l74 63 28
-34 c15 -18 28 -37 28 -41 0 -5 5 -5 10 -2 30 18 -1 162 -45 215 -19 22 -41
65 -49 94 -13 45 -30 68 -93 133 -72 72 -85 93 -182 282 -93 182 -149 271
-170 271 -4 0 -29 -30 -54 -67z"/>
<path d="M6210 6108 c-25 -11 -81 -33 -125 -49 -118 -44 -216 -95 -303 -157
-91 -65 -118 -77 -197 -86 -80 -9 -122 -39 -189 -133 -30 -43 -65 -89 -79
-101 -25 -23 -25 -24 -10 -69 16 -47 73 -112 147 -167 56 -42 79 -101 78 -201
-1 -71 -20 -164 -48 -230 -4 -11 19 12 52 50 102 118 239 220 397 296 104 49
172 66 322 78 143 13 148 17 143 106 -3 46 -16 86 -55 170 -28 61 -56 128 -62
150 -6 22 -11 108 -11 190 0 83 -4 155 -8 161 -5 8 -20 5 -52 -8z"/>
<path d="M3906 5542 c-10 -26 -24 -69 -30 -97 -12 -48 -15 -52 -82 -88 -236
-129 -412 -302 -521 -512 -47 -92 -88 -214 -103 -312 -6 -37 -13 -69 -15 -71
-1 -2 -29 10 -61 26 -123 62 -334 124 -334 98 0 -6 -10 9 -21 34 -29 65 -92
170 -101 170 -4 0 -8 -19 -8 -42 -1 -175 -145 -550 -300 -782 -173 -258 -458
-474 -756 -572 -284 -93 -543 -126 -664 -84 -30 10 -56 18 -57 16 -4 -4 64
-101 84 -119 17 -15 19 -24 12 -60 -16 -86 -21 -253 -10 -342 55 -448 303
-747 762 -918 259 -97 465 -115 713 -63 l62 13 34 -106 c39 -122 137 -324 205
-426 116 -172 307 -385 465 -517 232 -195 470 -322 805 -431 280 -91 393 -111
620 -112 250 0 416 37 611 136 274 139 534 414 678 719 89 189 156 479 160
693 l3 127 34 25 c58 43 181 169 168 174 -6 2 -58 -2 -115 -9 -168 -21 -420 0
-672 56 -297 66 -557 185 -767 352 -92 73 -274 251 -335 327 -102 128 -274
452 -356 670 -30 80 -38 118 -42 189 -5 102 10 186 42 229 30 41 28 107 -7
182 -22 47 -54 85 -157 185 -77 75 -135 139 -144 161 -24 58 -36 188 -26 278
13 114 33 142 25 36 -15 -186 93 -374 297 -517 73 -52 81 -69 208 -453 57
-170 104 -311 105 -312 0 -1 22 8 48 21 66 34 130 40 197 20 86 -26 107 -22
194 32 l79 49 131 0 c122 1 137 3 220 33 50 18 93 29 97 25 3 -5 18 -49 32
-100 37 -128 62 -177 116 -223 l46 -40 6 -117 c6 -128 14 -153 85 -263 34 -53
35 -58 32 -131 -6 -111 -62 -224 -173 -347 l-48 -53 51 30 c252 148 644 220
888 161 45 -10 175 -51 290 -89 207 -70 324 -95 338 -72 5 7 -3 11 -23 11 -37
0 -103 22 -202 67 l-76 34 21 42 c19 39 21 56 18 237 -3 228 3 261 79 420 28
58 53 124 56 148 l6 44 -254 -4 c-233 -4 -264 -7 -372 -32 -65 -15 -122 -26
-127 -24 -5 2 9 32 30 68 55 91 117 253 148 384 35 151 37 382 4 557 -20 108
-67 260 -97 318 -11 22 -8 34 30 110 49 97 61 131 47 131 -5 0 -48 -20 -94
-45 -105 -56 -290 -117 -451 -150 -135 -27 -370 -49 -421 -39 -33 6 -33 7 -39
69 -6 59 -22 110 -45 144 -8 11 -24 5 -83 -34 -41 -27 -96 -67 -122 -89 l-49
-39 -71 22 c-123 39 -278 111 -377 176 -166 110 -415 337 -486 445 -15 23 -37
74 -49 115 l-21 74 -18 -47z"/>
<path d="M1710 5452 c0 -9 -16 -80 -36 -157 -30 -118 -36 -165 -43 -300 -7
-156 -8 -162 -39 -217 -42 -73 -43 -135 -3 -249 16 -46 32 -96 35 -111 5 -23
13 -28 63 -38 58 -12 56 -13 213 30 87 24 203 -46 308 -185 25 -33 42 -51 38
-40 -26 68 -46 210 -46 331 0 233 32 346 153 544 l45 74 -20 28 c-30 43 -90
68 -212 89 -134 24 -215 59 -306 134 -99 81 -150 104 -150 67z"/>
<path d="M290 4473 c-14 -3 -29 -8 -33 -13 -15 -13 41 -148 114 -278 93 -164
101 -187 108 -319 7 -130 12 -137 121 -208 36 -23 74 -52 85 -65 l20 -23 -55
7 c-173 21 -201 20 -290 -11 -47 -17 -108 -35 -136 -42 -60 -14 -87 -39 -108
-99 -9 -24 -29 -60 -46 -80 l-30 -36 43 -14 c23 -8 80 -15 127 -15 123 0 215
37 324 132 70 61 89 68 226 79 145 13 444 43 447 46 1 1 -2 19 -8 41 -14 50
-4 109 26 164 30 52 31 71 5 146 -25 73 -25 97 1 165 19 49 20 67 14 163 l-7
107 53 0 52 0 -21 23 c-42 45 -111 72 -180 70 -35 -1 -77 4 -97 13 -44 18 -92
18 -180 -1 -74 -15 -61 -16 -345 25 -171 25 -199 28 -230 23z"/>
</g>
</svg>
